<?xml version="1.0" encoding="utf-8"?>
<!-- Generator: Adobe Illustrator 24.3.0, SVG Export Plug-In . SVG Version: 6.00 Build 0)  -->
<svg version="1.1" id="fbSvg" xmlns="http://www.w3.org/2000/svg" xmlns:xlink="http://www.w3.org/1999/xlink" x="0px" y="0px"
	 viewBox="0 0 31.6 32" style="enable-background:new 0 0 31.6 32;" xml:space="preserve">
<style type="text/css">
	.st0{fill-rule:evenodd;clip-rule:evenodd;fill:#FFFFFF;}
	.st1{fill-rule:evenodd;clip-rule:evenodd;fill:#826254;}
</style>
<ellipse class="st0" cx="15.8" cy="16.1" rx="15.8" ry="15.9"/>
<g id="Enter-The-Vibe-Website">
	<g id="About-_x2F_-Content-Page" transform="translate(-114.000000, -4669.000657)">
		<g id="Group-4" transform="translate(114.000000, 4389.000000)">
			<g id="Group-15" transform="translate(0.000000, 280.000000)">
				<g id="Group-9" transform="translate(0.000000, 0.000657)">
					<g id="Clip-8">
					</g>
					<path id="Fill-7" class="st1" d="M31.6,16c0-8.8-7.1-16-15.8-16S0,7.2,0,16c0,8,5.8,14.6,13.3,15.8V20.6h-4V16h4v-3.5
						c0-4,2.4-6.2,6-6.2c1.7,0,3.5,0.3,3.5,0.3v3.9h-2c-2,0-2.6,1.2-2.6,2.5v3h4.4l-0.7,4.6h-3.7v11.2C25.8,30.6,31.6,24,31.6,16"/>
				</g>
			</g>
		</g>
	</g>
</g>
</svg>
