<?xml version="1.0" encoding="UTF-8"?>
<svg width="31.5583499px" height="31.8055446px" viewBox="0 0 31.5583499 31.8055446" version="1.1" xmlns="http://www.w3.org/2000/svg" xmlns:xlink="http://www.w3.org/1999/xlink">
    <title>Group 9</title>
    <defs>
        <polygon id="path-1" points="0 0 31.5583499 0 31.5583499 31.8055446 0 31.8055446"></polygon>
    </defs>
    <g id="Enter-The-Vibe-Website" stroke="none" stroke-width="1" fill="none" fill-rule="evenodd">
        <g id="About-/-Content-Page" transform="translate(-114.000000, -4669.000657)">
            <g id="Group-4" transform="translate(114.000000, 4389.000000)">
                <g id="Group-15" transform="translate(0.000000, 280.000000)">
                    <g id="Group-9" transform="translate(0.000000, 0.000657)">
                        <mask id="mask-2" fill="white">
                            <use xlink:href="#path-1"></use>
                        </mask>
                        <g id="Clip-8"></g>
                        <path d="M31.5583499,15.999617 C31.5583499,7.16322364 24.49399,0 15.7795527,0 C7.06403619,0 -0.000323756184,7.16322364 -0.000323756184,15.999617 C-0.000323756184,23.9857469 5.77009064,30.6051083 13.3136097,31.8055446 L13.3136097,20.6251817 L9.30766655,20.6251817 L9.30766655,15.999617 L13.3136097,15.999617 L13.3136097,12.4749083 C13.3136097,8.46433469 15.6694756,6.24949133 19.2739611,6.24949133 C20.9995816,6.24949133 22.8061411,6.56245832 22.8061411,6.56245832 L22.8061411,10.4997145 L20.8161197,10.4997145 C18.8563156,10.4997145 18.2444164,11.7329795 18.2444164,12.997979 L18.2444164,15.999617 L22.6205209,15.999617 L21.9212075,20.6251817 L18.2444164,20.6251817 L18.2444164,31.8055446 C25.7879355,30.6051083 31.5583499,23.9857469 31.5583499,15.999617" id="Fill-7" fill="#606060" mask="url(#mask-2)"></path>
                    </g>
                </g>
            </g>
        </g>
    </g>
</svg>