<?xml version="1.0" encoding="UTF-8"?>
<svg width="31.5586737px" height="31.999234px" viewBox="0 0 31.5586737 31.999234" version="1.1" xmlns="http://www.w3.org/2000/svg" xmlns:xlink="http://www.w3.org/1999/xlink">
    <title>Group 10</title>
    <g id="Enter-The-Vibe-Website" stroke="none" stroke-width="1" fill="none" fill-rule="evenodd">
        <g id="About-/-Content-Page" transform="translate(-155.147361, -4669.000547)" fill="#606060">
            <g id="Group-4" transform="translate(114.000000, 4389.000000)">
                <g id="Group-15" transform="translate(0.000000, 280.000000)">
                    <g id="Group-10" transform="translate(41.147361, 0.000547)">
                        <path d="M20.6770125,12.1465118 C20.0780635,12.1465118 19.5924293,11.6540812 19.5924293,11.0467501 C19.5924293,10.4394191 20.0780635,9.94698848 20.6770125,9.94698848 C21.2759614,9.94698848 21.7615957,10.4394191 21.7615957,11.0467501 C21.7615957,11.6540812 21.2759614,12.1465118 20.6770125,12.1465118 M15.8552037,20.597715 C13.3428557,20.597715 11.298875,18.5251293 11.298875,15.9776218 C11.298875,13.4301142 13.3428557,11.3575285 15.8552037,11.3575285 C18.3675517,11.3575285 20.4115324,13.4301142 20.4115324,15.9776218 C20.4115324,18.5251293 18.3675517,20.597715 15.8552037,20.597715 M19.4715603,8.36245627 L12.0856025,8.36245627 C9.98118733,8.36245627 8.26851711,10.0980005 8.26851711,12.2318664 L8.26851711,19.7222828 C8.26851711,21.8561487 9.98118733,23.5927873 12.0856025,23.5927873 L19.4715603,23.5927873 C21.5770547,23.5927873 23.2886457,21.8561487 23.2886457,19.7222828 L23.2886457,12.2318664 C23.2886457,10.0980005 21.5770547,8.36245627 19.4715603,8.36245627" id="Fill-1"></path>
                        <path d="M25.0295906,19.7223923 C25.0295906,22.8290821 22.536668,25.3568925 19.4717761,25.3568925 L12.0858184,25.3568925 C9.02092649,25.3568925 6.52800387,22.8290821 6.52800387,19.7223923 L6.52800387,12.2319758 C6.52800387,9.12528597 9.02092649,6.59747561 12.0858184,6.59747561 L19.4717761,6.59747561 C22.536668,6.59747561 25.0295906,9.12528597 25.0295906,12.2319758 L25.0295906,19.7223923 Z M15.7787972,0 C7.06435994,0 0,7.16322364 0,15.999617 C0,24.8360104 7.06435994,31.999234 15.7787972,31.999234 C24.4932345,31.999234 31.5586737,24.8360104 31.5586737,15.999617 C31.5586737,7.16322364 24.4932345,0 15.7787972,0 L15.7787972,0 Z" id="Fill-3"></path>
                        <path d="M15.8549879,13.0178951 C14.2459196,13.0178951 12.9368655,14.3452691 12.9368655,15.9768558 C12.9368655,17.6095367 14.2459196,18.9369108 15.8549879,18.9369108 C17.4640561,18.9369108 18.7731103,17.6095367 18.7731103,15.9768558 C18.7731103,14.3452691 17.4640561,13.0178951 15.8549879,13.0178951" id="Fill-5"></path>
                    </g>
                </g>
            </g>
        </g>
    </g>
</svg>