<?xml version="1.0" encoding="UTF-8"?>
<svg width="31.5586737px" height="32px" viewBox="0 0 31.5586737 32" version="1.1" xmlns="http://www.w3.org/2000/svg" xmlns:xlink="http://www.w3.org/1999/xlink">
    <title>Group 12</title>
    <defs>
        <polygon id="path-1" points="0 0 31.5586737 0 31.5586737 32 0 32"></polygon>
    </defs>
    <g id="Enter-The-Vibe-Website" stroke="none" stroke-width="1" fill="none" fill-rule="evenodd">
        <g id="About-/-Content-Page" transform="translate(-237.441326, -4669.000000)">
            <g id="Group-4" transform="translate(114.000000, 4389.000000)">
                <g id="Group-15" transform="translate(0.000000, 280.000000)">
                    <g id="Group-12" transform="translate(123.441326, 0.000000)">
                        <mask id="mask-2" fill="white">
                            <use xlink:href="#path-1"></use>
                        </mask>
                        <g id="Clip-11"></g>
                        <path d="M23.9763038,14.156504 L23.9730663,14.156504 C23.8122674,14.1729184 23.6503893,14.1805784 23.487432,14.1816727 C21.7089314,14.1816727 20.0502205,13.2723175 19.0757144,11.7632914 L19.0757144,19.9967308 C19.0757144,23.357296 16.3896172,26.0809843 13.0754331,26.0809843 C9.76124896,26.0809843 7.07407263,23.357296 7.07407263,19.9967308 C7.07407263,16.6361656 9.76124896,13.911383 13.0754331,13.911383 C13.2006188,13.911383 13.322567,13.9234202 13.4455943,13.9310802 L13.4455943,16.9294354 C13.322567,16.9141153 13.201698,16.8922295 13.0754331,16.8922295 C11.3832674,16.8922295 10.0126996,18.2819781 10.0126996,19.9978251 C10.0126996,21.7125778 11.3832674,23.1034207 13.0754331,23.1034207 C14.7665196,23.1034207 16.261194,21.750878 16.261194,20.0361253 L16.290332,6.05328509 L19.1199611,6.05328509 C19.3865203,8.62596135 21.4326594,10.6350782 23.9763038,10.8243904 L23.9763038,14.156504 Z M15.7798764,-0.00032828706 C7.06543913,-0.00032828706 0,7.16398965 0,16.000383 C0,24.8367764 7.06543913,32 15.7798764,32 C24.4943137,32 31.5586737,24.8367764 31.5586737,16.000383 C31.5586737,7.16398965 24.4943137,-0.00032828706 15.7798764,-0.00032828706 L15.7798764,-0.00032828706 Z" id="Fill-10" fill="#606060" mask="url(#mask-2)"></path>
                    </g>
                </g>
            </g>
        </g>
    </g>
</svg>