<?xml version="1.0" encoding="UTF-8"?>
<svg width="32px" height="32.0006566px" viewBox="0 0 32 32.0006566" version="1.1" xmlns="http://www.w3.org/2000/svg" xmlns:xlink="http://www.w3.org/1999/xlink">
    <title>Group 3</title>
    <defs>
        <polygon id="path-1" points="0 0 32 0 32 32.0006566 0 32.0006566"></polygon>
    </defs>
    <g id="Enter-The-Vibe-Website" stroke="none" stroke-width="1" fill="none" fill-rule="evenodd">
        <g id="About-/-Content-Page" transform="translate(-278.000000, -4669.000000)">
            <g id="Group-4" transform="translate(114.000000, 4389.000000)">
                <g id="Group-15" transform="translate(0.000000, 280.000000)">
                    <g id="Group-3" transform="translate(164.000000, 0.000000)">
                        <mask id="mask-2" fill="white">
                            <use xlink:href="#path-1"></use>
                        </mask>
                        <g id="Clip-2"></g>
                        <path d="M23.9797551,22.9751727 L20.887217,22.9751727 L20.887217,18.1350113 C20.887217,16.9794132 20.8653307,15.4955201 19.2796662,15.4955201 C17.6688325,15.4955201 17.4226113,16.7528897 17.4226113,18.0507489 L17.4226113,22.9751727 L14.3300732,22.9751727 L14.3300732,13.0201765 L17.2989536,13.0201765 L17.2989536,14.3815061 L17.3394433,14.3815061 C17.7530949,13.5990698 18.7620546,12.7739553 20.2689283,12.7739553 C23.4019561,12.7739553 23.9797551,14.834553 23.9797551,17.5156282 L23.9797551,22.9751727 Z M10.8402982,11.6621298 C9.84665892,11.6621298 9.04343068,10.8567129 9.04343068,9.86635661 C9.04343068,8.87709459 9.84665892,8.07386636 10.8402982,8.07386636 C11.8306545,8.07386636 12.6338828,8.87709459 12.6338828,9.86635661 C12.6338828,10.8567129 11.8306545,11.6621298 10.8402982,11.6621298 L10.8402982,11.6621298 Z M9.28965187,22.9751727 L12.3887559,22.9751727 L12.3887559,13.0201765 L9.28965187,13.0201765 L9.28965187,22.9751727 Z M16,0 C7.16339512,0 0,7.16339512 0,16 C0,24.8366049 7.16339512,32.0010943 16,32.0010943 C24.8366049,32.0010943 32,24.8366049 32,16 C32,7.16339512 24.8366049,0 16,0 L16,0 Z" id="Fill-1" fill="#606060" mask="url(#mask-2)"></path>
                    </g>
                </g>
            </g>
        </g>
    </g>
</svg>