<?xml version="1.0" encoding="UTF-8"?>
<svg width="31.5586737px" height="31.999234px" viewBox="0 0 31.5586737 31.999234" version="1.1" xmlns="http://www.w3.org/2000/svg" xmlns:xlink="http://www.w3.org/1999/xlink">
    <title>Fill 13</title>
    <g id="Enter-The-Vibe-Website" stroke="none" stroke-width="1" fill="none" fill-rule="evenodd">
        <g id="About-/-Content-Page" transform="translate(-196.294397, -4669.000657)" fill="#606060">
            <g id="Group-4" transform="translate(114.000000, 4389.000000)">
                <g id="Group-15" transform="translate(0.000000, 280.000000)">
                    <path d="M108.225109,14.5536219 C107.967184,15.0022809 107.502054,15.2517791 107.025053,15.2517791 C106.786553,15.2517791 106.545894,15.1894045 106.32574,15.059184 C99.2527464,10.8680525 90.0785753,13.3597513 89.9868444,13.38492 C89.2476011,13.5917408 88.4835365,13.1518362 88.2795701,12.4022474 C88.0756037,11.6515643 88.5105162,10.8768069 89.2497594,10.669986 C89.3555198,10.6404402 91.886214,9.94337732 95.4043645,9.82628827 C97.4774833,9.75734799 99.4718214,9.90288858 101.333419,10.2618158 C103.691444,10.7148519 105.842264,11.5114952 107.726525,12.6276712 C108.389146,13.0205214 108.611458,13.882822 108.225109,14.5536219 M105.932916,18.6539273 C105.722474,19.0194202 105.343679,19.2229582 104.954093,19.2229582 C104.759839,19.2229582 104.563427,19.1715266 104.384282,19.0653804 C101.408963,17.3024789 97.9728302,17.0190577 95.6126477,17.0923752 C92.9988561,17.1722584 91.0822194,17.6964234 91.0627941,17.7018948 C90.4606076,17.8682269 89.8379165,17.5092998 89.6728009,16.8975915 C89.5076852,16.2869776 89.8605794,15.6555722 90.462766,15.4881458 C90.5491009,15.4640714 92.612507,14.8950405 95.4809868,14.7998372 C97.1699149,14.7429341 98.7962501,14.8622118 100.314667,15.1543872 C102.236699,15.5242573 103.990379,16.1731714 105.526062,17.0836209 C106.066735,17.4031536 106.248038,18.1067822 105.932916,18.6539273 M104.155494,22.3953055 C103.978507,22.7038953 103.657989,22.8756989 103.329916,22.8756989 C103.165879,22.8756989 103.000764,22.8330216 102.848598,22.7432898 C100.33733,21.2550551 97.435395,21.0154056 95.4432153,21.0766858 C93.2373565,21.1456261 91.6185755,21.586625 91.6023877,21.5910022 C91.0940905,21.7321656 90.5685263,21.4290472 90.428232,20.9136366 C90.2890168,20.3971316 90.5879517,19.8642123 91.0962489,19.7230488 C91.1685544,19.7022573 92.9103627,19.2229582 95.332059,19.1419807 C96.7587446,19.093832 98.1314708,19.1945067 99.4124661,19.440722 C101.035564,19.753689 102.516209,20.3019283 103.813392,21.0701201 C104.268809,21.3404097 104.422053,21.933515 104.155494,22.3953055 M98.0731947,0.00065657412 C89.3587574,0.00065657412 82.2943974,7.16388022 82.2943974,16.0002736 C82.2943974,24.8366669 89.3587574,31.9998906 98.0731947,31.9998906 C106.788711,31.9998906 113.853071,24.8366669 113.853071,16.0002736 C113.853071,7.16388022 106.788711,0.00065657412 98.0731947,0.00065657412" id="Fill-13"></path>
                </g>
            </g>
        </g>
    </g>
</svg>