<?xml version="1.0" encoding="utf-8"?>
<!-- Generator: Adobe Illustrator 24.3.0, SVG Export Plug-In . SVG Version: 6.00 Build 0)  -->
<svg version="1.1" id="linkedinSvg" xmlns="http://www.w3.org/2000/svg" xmlns:xlink="http://www.w3.org/1999/xlink" x="0px"
	 y="0px" viewBox="0 0 32 32" style="enable-background:new 0 0 32 32;" xml:space="preserve">
<style type="text/css">
	.st0{fill-rule:evenodd;clip-rule:evenodd;fill:#FFFFFF;}
	.st1{filter:url(#Adobe_OpacityMaskFilter);}
	.st2{mask:url(#mask-2_1_);fill-rule:evenodd;clip-rule:evenodd;fill:#826254;}
</style>
<circle class="st0" cx="16" cy="16" r="13.9"/>
<g id="Enter-The-Vibe-Website">
	<g id="About-_x2F_-Content-Page" transform="translate(-278.000000, -4669.000000)">
		<g id="Group-4" transform="translate(114.000000, 4389.000000)">
			<g id="Group-15" transform="translate(0.000000, 280.000000)">
				<g id="Group-3" transform="translate(164.000000, 0.000000)">
					<g id="Clip-2">
					</g>
					<defs>
						<filter id="Adobe_OpacityMaskFilter" filterUnits="userSpaceOnUse" x="0" y="0" width="32" height="32">
							<feColorMatrix  type="matrix" values="1 0 0 0 0  0 1 0 0 0  0 0 1 0 0  0 0 0 1 0"/>
						</filter>
					</defs>
					<mask maskUnits="userSpaceOnUse" x="0" y="0" width="32" height="32" id="mask-2_1_">
						<g class="st1">
							<polygon id="path-1_1_" class="st0" points="0,0 32,0 32,32 0,32 							"/>
						</g>
					</mask>
					<path id="Fill-1" class="st2" d="M24,23h-3.1v-4.8c0-1.2,0-2.6-1.6-2.6c-1.6,0-1.9,1.3-1.9,2.6V23h-3.1V13h3v1.4h0
						c0.4-0.8,1.4-1.6,2.9-1.6c3.1,0,3.7,2.1,3.7,4.7V23z M10.8,11.7c-1,0-1.8-0.8-1.8-1.8c0-1,0.8-1.8,1.8-1.8c1,0,1.8,0.8,1.8,1.8
						C12.6,10.9,11.8,11.7,10.8,11.7L10.8,11.7z M9.3,23h3.1V13H9.3V23z M16,0C7.2,0,0,7.2,0,16s7.2,16,16,16s16-7.2,16-16
						S24.8,0,16,0L16,0z"/>
				</g>
			</g>
		</g>
	</g>
</g>
</svg>
