<?xml version="1.0" encoding="UTF-8"?>
<svg width="217px" height="41px" viewBox="0 0 217 41" version="1.1" xmlns="http://www.w3.org/2000/svg" xmlns:xlink="http://www.w3.org/1999/xlink">
    <title>Group 7</title>
    <defs>
        <polygon id="path-1" points="0 0 57.7428933 0 57.7428933 41 0 41"></polygon>
        <polygon id="path-3" points="0 0 149.51978 0 149.51978 17.0396351 0 17.0396351"></polygon>
    </defs>
    <g id="Enter-The-Vibe-Website" stroke="none" stroke-width="1" fill="none" fill-rule="evenodd">
        <g id="About-/-Content-Page" transform="translate(-692.000000, -18.000000)">
            <g id="Group-7" transform="translate(692.000000, 18.000000)">
                <g id="Group-3" transform="translate(159.257107, 0.000000)">
                    <mask id="mask-2" fill="white">
                        <use xlink:href="#path-1"></use>
                    </mask>
                    <g id="Clip-2"></g>
                    <path d="M32.5171262,30.7101945 C32.4878393,30.8514028 32.4462212,31.0193261 32.4385141,31.0361184 C32.3221374,31.3086121 32.2088435,31.5818691 32.0940082,31.8551261 C32.0123133,32.0482379 31.9313891,32.2413497 31.8404458,32.4298818 C31.4481561,33.2496528 30.873209,34.043472 30.1487448,34.6052518 C30.1772609,34.5831164 30.1757195,34.4060337 30.1988407,34.3556567 C30.2597265,34.2236079 30.4123264,34.0969022 30.5024991,33.9808824 C30.6951757,33.7335772 30.8747504,33.4763493 31.0419937,33.2114884 C31.3764804,32.6817667 31.658559,32.1192237 31.8820639,31.5345453 C31.9976699,31.2315201 32.1710789,30.6285228 32.5325403,30.5491408 C32.5417888,30.6056241 32.5286868,30.6537113 32.5171262,30.7101945 M40.5895072,27.7020776 C40.5956729,27.6822322 40.60338,27.6623867 40.611087,27.6433045 C41.2530856,26.0014726 42.7891039,24.7641832 44.2156819,23.7993875 C46.0746262,22.5422526 44.9224198,24.64969 44.4029636,25.3542046 C43.6484418,26.3785367 42.3575082,28.1615768 40.8746687,28.0883012 C40.7344001,28.0814316 40.5879658,27.9890738 40.5694689,27.8509187 C40.5625325,27.8005417 40.5733224,27.750928 40.5895072,27.7020776 M57.6406203,22.0484055 C57.6036264,21.9965019 57.557384,21.9529945 57.5057467,21.9155934 C57.4101791,21.8453709 57.2961145,21.7957572 57.184362,21.7507233 C56.7311865,21.5660076 56.3419797,21.5461622 55.9758941,21.9201731 C54.6125141,23.3139365 53.254529,24.7122796 51.8657157,26.0816178 C49.9397199,27.9799144 48.0283675,29.9072159 45.8896566,31.5749995 C44.8091259,32.4176692 43.6723337,33.1931695 42.4615536,33.8419641 C41.7409429,34.2289509 39.439613,35.9058941 38.6527215,35.0670409 C38.1332653,34.5136573 38.6681357,33.1023383 38.8145699,32.4878917 C38.9663991,31.8482565 39.1498273,31.2162543 39.3640837,30.5949381 C39.4295938,30.4041162 39.7949087,29.318721 39.8727501,29.3958131 C39.9020369,29.424818 39.9259288,29.4599293 39.9259288,29.5064898 C39.9259288,29.5530504 39.9374894,29.5530504 39.9552157,29.5469441 C39.9729419,29.5408378 39.9960631,29.5293884 40.0199551,29.5530504 C40.1132106,29.6690701 40.2187974,29.8079885 40.3189892,29.9308778 C42.5609748,32.6733706 46.0399444,29.1584306 47.4133436,27.1853318 C47.9335706,26.4388365 48.3643955,25.6160123 48.547053,24.7267821 C48.8391508,23.3063036 48.4353006,21.4438816 47.0356973,20.7538695 C46.0507343,20.2684185 44.9378339,19.9562338 43.8349528,19.9768426 C40.6218769,20.036379 39.0396162,22.8994713 36.3575572,24.0787508 C36.4677683,23.3872121 36.237327,22.4598176 35.9984079,21.8079698 C35.5390668,20.5569413 34.2450504,19.6997692 32.8940017,19.9875286 C31.4373662,20.2981867 30.0315973,22.02856 29.1730302,23.1597524 C30.6188758,19.1761538 32.2674172,15.2650675 34.1086353,11.4455757 C34.3336817,10.9792069 34.5641229,10.5029154 34.6250088,9.98998604 C34.6851239,9.4762934 34.5433139,8.90917062 34.1363808,8.58629992 C33.6084467,8.16801824 32.7976634,8.29472401 32.257398,8.69621335 C31.7171327,9.09770269 31.3849582,9.70909616 31.0743634,10.3036973 C30.3668547,11.6562431 29.683238,13.0217649 29.0227424,14.3979726 C28.1749651,16.1642204 27.3649525,17.9487871 26.6397175,19.7677018 C26.3083137,20.6004487 25.992324,21.4438816 25.543002,22.2201452 C25.0536033,23.0651047 24.4154583,23.81389 23.8058293,24.5787043 C22.6212533,26.0617723 21.5330155,27.6173527 20.4463192,29.1721698 C19.6409308,30.3232077 18.8363131,31.4734823 18.0316954,32.6245202 C18.0763964,27.8623681 20.7037352,23.5681113 22.564221,19.1769171 C22.8062228,18.6059778 23.0351227,17.9472605 22.7669168,17.3877706 C22.4147039,16.6542511 21.3449631,16.5183859 20.6235817,16.9053728 C19.9022003,17.2915964 19.4544198,18.0289323 19.0559645,18.7387899 C18.3106912,20.0661473 17.6147431,21.420983 16.9696617,22.7994806 C16.0201511,24.8282994 15.174686,26.9219976 14.7415488,29.1172131 C14.5180439,30.2529852 14.4086036,31.4444773 14.7369246,32.5558243 C15.0120669,33.4870353 15.5962625,34.3266518 16.377759,34.9128567 C17.0729364,35.433419 18.0309247,35.7509467 18.8170454,35.377699 C19.188526,35.2013795 19.4767703,34.892248 19.7449762,34.5823532 C20.7361049,33.4389482 21.5969842,32.1856297 22.3083464,30.8536926 C21.7233801,32.9527339 21.2624975,35.0845965 20.9264694,37.2363046 C20.9010361,37.401938 20.8763735,37.5752043 20.9310937,37.7339682 C20.9973744,37.9286065 21.169242,38.0659983 21.3334025,38.1919408 C21.9831082,38.6926575 22.9195167,39.1987173 23.5538083,38.6796817 C23.8258677,38.4575649 23.9430151,38.1041627 24.0486019,37.770606 C24.7545692,35.5341729 25.4882819,33.3000298 26.4724742,31.1689305 C27.2293081,29.5324416 28.1718823,27.9883105 29.2254382,26.5235614 C30.2265861,25.1305613 31.1182937,23.5078116 32.5587443,22.5040882 C32.719822,22.3918849 32.9124987,22.2834981 33.1028632,22.3338751 C34.519422,22.7155189 31.7117378,27.7211598 31.2685815,28.3646114 C30.1194579,30.0316318 28.5086811,31.2963995 27.3888444,32.9931881 C26.9873062,33.6015284 26.7113933,34.3663427 26.9549365,35.0517751 C27.085186,35.4189165 27.3526212,35.7249949 27.6555089,35.9738267 C30.4493203,38.2659797 33.6022811,35.5227236 34.5494795,32.8245015 C34.5695179,32.7695448 34.5741421,32.7298539 34.6242381,32.6993223 C34.7244299,33.5389388 34.8384945,34.2266611 35.4219194,34.8693493 C36.5941642,36.1600689 37.9953088,37.4446821 39.8527117,37.4866629 C42.379088,37.5446728 44.9177956,35.4586075 46.8330015,34.0366024 C48.8345266,32.5489547 50.5601387,30.7185907 52.2718781,28.9134152 C53.1974967,27.9379335 54.0969113,26.9380266 54.9839946,25.928197 C55.8371669,24.9565317 56.8252127,23.9955525 57.5566133,22.9300028 C57.7354173,22.6697217 57.8263606,22.3041069 57.6406203,22.0484055 M24.1017807,8.68018431 C23.3403225,9.76557945 22.4031433,10.6227516 21.7195265,11.775316 C21.5068115,12.1355878 21.3025742,12.534024 21.3449631,12.9492525 C21.4181802,13.6682696 22.0971728,14.2872959 22.6921583,14.626959 C22.8732743,14.7300028 23.0751995,14.8177809 23.2825195,14.7964088 C23.6000507,14.7628242 23.8289505,14.4910937 24.0208565,14.2384455 C25.2378022,12.6355413 26.378448,10.9761538 27.4389403,9.26715256 C27.5876867,9.02671693 27.7387452,8.77635856 27.7765098,8.49699525 C27.8982814,7.58944615 26.7314316,7.16505818 26.0023432,7.13223681 C24.931061,7.08414968 24.6582308,7.88789165 24.1017807,8.68018431 M19.3326481,10.5174179 C20.2960314,8.88627199 21.3657722,7.3192423 22.3569009,5.70488876 C23.2963923,4.17526017 24.0385827,2.53419157 25.149171,1.11218654 C25.1984962,1.04883366 25.2493628,0.983954203 25.2717133,0.907625431 C25.2878981,0.851905427 25.2871274,0.795422135 25.2747961,0.740465419 C25.1599608,0.233642372 24.2682533,-0.0541170995 23.8204728,0.00847249372 C23.3318448,0.0771683887 22.9750076,0.489343759 22.687534,0.88777995 C21.9784839,1.87165782 21.3542116,2.92957461 20.7152958,3.95848646 C16.0694763,11.4455757 10.8040088,18.5807894 6.87494645,26.4846337 C6.01714999,28.2104273 5.2256343,29.9682789 4.50271149,31.7536089 C4.28922576,28.9370772 4.26687527,26.1152025 4.34702876,23.2918012 L4.724675,16.1344522 L4.82872039,14.5231518 C4.97977889,12.3966322 5.13777374,10.2716392 5.26571104,8.1519892 C5.31657768,7.30626641 5.36050795,6.42008936 4.99750514,5.65222191 C4.51195997,4.62407335 3.27189303,4.00657358 2.14820279,4.23250675 C2.03413821,4.25616867 1.91390798,4.2912799 1.83914944,4.37982128 C1.76901514,4.46301964 1.75205959,4.57827609 1.73818687,4.68589966 C0.96748026,10.777699 0.219894845,16.9588029 0.025676779,23.1231146 C0.0233646591,23.2024965 0.0202818327,23.2811151 0.0179697129,23.3604971 C-0.0552474154,25.7137131 0.118932279,28.0455571 0.118932279,30.3941934 C0.273073602,32.8306078 0.564400702,35.2830513 1.3798083,37.5866536 C1.64416067,38.3339123 1.97016956,39.0750647 2.48654299,39.6803519 C2.98673159,40.2673201 4.82332545,41.5702523 5.56782803,40.720713 C5.74123702,40.5214949 5.78670871,40.2467113 5.82755616,39.9871935 C7.04296049,32.3749251 10.777034,25.413741 14.5928025,18.6968091 C16.1496298,15.9573694 17.7295784,13.2309057 19.3326481,10.5174179" id="Fill-1" fill="#FFFFFF" mask="url(#mask-2)"></path>
                </g>
                <g id="Group-6" transform="translate(0.000000, 12.798961)">
                    <mask id="mask-4" fill="white">
                        <use xlink:href="#path-3"></use>
                    </mask>
                    <g id="Clip-5"></g>
                    <path d="M149.51978,2.96766266 L149.51978,0 L138.18654,0 L138.18654,17.0396351 L149.51978,17.0396351 L149.51978,14.0719724 L141.545279,14.0719724 L141.545279,9.93189984 L148.335204,9.93189984 L148.335204,6.96423718 L141.545279,6.96423718 L141.545279,2.96766266 L149.51978,2.96766266 Z M99.3159516,2.96766266 L103.810713,2.96766266 L103.810713,17.0396351 L107.169452,17.0396351 L107.169452,2.96766266 L111.663442,2.96766266 L111.663442,0 L99.3159516,0 L99.3159516,2.96766266 Z M127.197034,6.96423718 L121.373575,6.96423718 L121.373575,0 L118.014835,0 L118.014835,17.0396351 L121.373575,17.0396351 L121.373575,9.90823792 L127.197034,9.90823792 L127.197034,17.0396351 L130.555773,17.0396351 L130.555773,0 L127.197034,0 L127.197034,6.96423718 Z M28.0502525,10.4341432 L21.2364354,0 L18.2399281,0 L18.2399281,17.0396351 L21.5986675,17.0396351 L21.5986675,6.58183003 L28.4124846,17.0396351 L31.408992,17.0396351 L31.408992,0 L28.0502525,0 L28.0502525,10.4341432 Z M-0.000385353307,17.0396351 L11.3328554,17.0396351 L11.3328554,14.0719724 L3.35912477,14.0719724 L3.35912477,9.93189984 L10.14905,9.93189984 L10.14905,6.96423718 L3.35912477,6.96423718 L3.35912477,2.96766266 L11.3328554,2.96766266 L11.3328554,0 L-0.000385353307,0 L-0.000385353307,17.0396351 Z M56.4577276,17.0396351 L67.7909683,17.0396351 L67.7909683,14.0719724 L59.8172377,14.0719724 L59.8172377,9.93189984 L66.6063923,9.93189984 L66.6063923,6.96423718 L59.8172377,6.96423718 L59.8172377,2.96766266 L67.7909683,2.96766266 L67.7909683,0 L56.4577276,0 L56.4577276,17.0396351 Z M37.7596144,2.96766266 L42.2536047,2.96766266 L42.2536047,17.0396351 L45.6123441,17.0396351 L45.6123441,2.96766266 L50.1071051,2.96766266 L50.1071051,0 L37.7596144,0 L37.7596144,2.96766266 Z M81.2220725,7.4664805 L78.0567804,7.4664805 L78.0567804,2.96766266 L81.2220725,2.96766266 C82.6964342,2.96766266 83.6629003,3.90116355 83.6629003,5.21707158 C83.6629003,6.5337429 82.6964342,7.4664805 81.2220725,7.4664805 L81.2220725,7.4664805 Z M87.020869,5.21707158 C87.020869,2.36924509 84.943044,0 81.4401824,0 L74.698041,0 L74.698041,17.0396351 L78.0567804,17.0396351 L78.0567804,10.2425579 L80.4729456,10.2425579 L83.8316851,17.0396351 L87.7222121,17.0396351 L83.8802396,9.6922275 C85.547278,9.09380992 87.020869,7.60997859 87.020869,5.21707158 L87.020869,5.21707158 Z" id="Fill-4" fill="#FFFFFF" mask="url(#mask-4)"></path>
                </g>
            </g>
        </g>
    </g>
</svg>