<?xml version="1.0" encoding="UTF-8"?>
<svg width="62px" height="62px" viewBox="0 0 62 62" version="1.1" xmlns="http://www.w3.org/2000/svg" xmlns:xlink="http://www.w3.org/1999/xlink">
    <title>Fill 1</title>
    <g id="Enter-The-Vibe-Website" stroke="none" stroke-width="1" fill="none" fill-rule="evenodd">
        <g id="ROSTER" transform="translate(-1043.000000, -171.000000)" fill="#816255">
            <path d="M1060.2894,217.873791 C1061.50071,221.841974 1063.37285,226.03213 1066.23566,229.11898 C1060.84099,227.575008 1056.10495,224.377718 1052.58022,220.188656 C1055.00395,219.307323 1057.64613,218.535337 1060.2894,217.873791 L1060.2894,217.873791 Z M1066.23566,174.877675 C1063.37285,177.854085 1061.50071,182.154681 1060.2894,186.122864 C1057.64613,185.571758 1055.00395,184.689332 1052.58022,183.807999 C1056.10495,179.618937 1060.84099,176.421647 1066.23566,174.877675 L1066.23566,174.877675 Z M1087.82092,186.122864 C1086.6096,182.154681 1084.73747,177.965619 1081.87465,174.877675 C1087.26933,176.421647 1092.00537,179.618937 1095.5301,183.807999 C1093.10637,184.689332 1090.46419,185.461318 1087.82092,186.122864 L1087.82092,186.122864 Z M1087.82092,217.873791 C1090.46419,218.424897 1093.10637,219.307323 1095.5301,220.188656 C1092.00537,224.377718 1087.26933,227.464568 1081.87465,229.11898 C1084.73747,226.14257 1086.6096,221.841974 1087.82092,217.873791 L1087.82092,217.873791 Z M1075.48711,216.440259 C1078.7912,216.550699 1081.98388,216.880926 1085.17765,217.433125 C1084.62715,219.196883 1083.96633,220.850202 1083.19629,222.394173 C1080.9932,226.804116 1078.34993,229.449206 1075.48711,230.110752 L1075.48711,216.440259 Z M1072.73462,216.440259 L1072.73462,230.110752 C1069.86962,229.449206 1067.22744,226.804116 1065.02544,222.394173 C1064.2543,220.850202 1063.59239,219.196883 1063.04189,217.433125 C1066.12644,216.880926 1069.42943,216.550699 1072.73462,216.440259 L1072.73462,216.440259 Z M1072.73462,203.432406 L1072.73462,213.684729 C1069.20989,213.795169 1065.68516,214.125395 1062.27185,214.676501 C1061.39149,211.148985 1060.95021,207.290149 1060.84099,203.320873 L1072.73462,203.320873 L1072.73462,203.432406 Z M1072.73462,190.31302 L1072.73462,200.565342 L1060.84099,200.565342 C1060.95021,196.59716 1061.39149,192.738324 1062.27185,189.209714 C1065.68516,189.87126 1069.09957,190.31302 1072.73462,190.31302 L1072.73462,190.31302 Z M1072.73462,187.556396 C1069.42943,187.445956 1066.23566,187.115729 1063.04189,186.564623 C1063.59239,184.799772 1064.2543,183.146453 1065.02544,181.603575 C1067.22744,177.193633 1069.86962,174.547449 1072.73462,173.885903 L1072.73462,187.556396 Z M1075.48711,187.556396 L1075.48711,173.885903 C1078.34993,174.547449 1080.9932,177.193633 1083.19629,181.603575 C1083.96633,183.146453 1084.62715,184.799772 1085.17765,186.564623 C1081.98388,187.226169 1078.68088,187.556396 1075.48711,187.556396 L1075.48711,187.556396 Z M1075.48711,200.674689 L1075.48711,190.423459 C1079.01075,190.31302 1082.53438,189.9817 1085.94879,189.430594 C1086.83024,192.95811 1087.26933,196.816946 1087.38074,200.786222 L1075.48711,200.674689 Z M1075.48711,203.432406 L1087.26933,203.432406 C1087.1601,207.400589 1086.71883,211.259425 1085.83847,214.786941 C1082.42515,214.125395 1079.01075,213.795169 1075.37679,213.795169 L1075.37679,203.432406 L1075.48711,203.432406 Z M1097.29082,217.984231 C1094.53723,216.880926 1091.56519,215.999593 1088.48174,215.227607 C1089.3621,211.589651 1089.9126,207.511029 1089.9126,203.320873 L1102.13718,203.320873 C1102.02687,208.833027 1100.15473,213.795169 1097.29082,217.984231 L1097.29082,217.984231 Z M1102.24641,200.674689 L1090.02401,200.674689 C1089.9126,196.485626 1089.47242,192.517444 1088.59097,188.769048 C1091.67442,188.107502 1094.53723,187.115729 1097.40114,186.012424 C1100.15473,190.201486 1102.02687,195.274068 1102.24641,200.674689 L1102.24641,200.674689 Z M1050.8184,186.012424 C1053.57308,187.115729 1056.54513,187.997062 1059.62858,188.769048 C1058.74822,192.407004 1058.19772,196.485626 1058.19772,200.674689 L1045.86391,200.674689 C1046.08345,195.274068 1047.95559,190.201486 1050.8184,186.012424 L1050.8184,186.012424 Z M1045.86391,203.432406 L1058.08631,203.432406 C1058.19772,207.621469 1058.6379,211.589651 1059.51935,215.338047 C1056.4359,215.999593 1053.57308,216.991366 1050.70918,218.094671 C1047.95559,213.795169 1046.08345,208.833027 1045.86391,203.432406 L1045.86391,203.432406 Z M1105,201.998874 C1105,181.493135 1085.50861,166.72043 1065.79548,172.122145 C1053.02149,175.649661 1043,187.445956 1043,201.998874 C1043,219.417763 1057.42658,233.639362 1075.15616,232.977816 C1091.89505,232.31627 1105,218.645777 1105,201.998874 L1105,201.998874 Z" id="Fill-1"></path>
        </g>
    </g>
</svg>