<?xml version="1.0" encoding="UTF-8"?>
<svg xmlns="http://www.w3.org/2000/svg" xmlns:xlink="http://www.w3.org/1999/xlink" version="1.1" id="instaSvg" x="0px" y="0px" viewBox="0 0 31.6 32.1" style="enable-background:new 0 0 31.6 32.1;" xml:space="preserve">
<style type="text/css">
	.st0{fill-rule:evenodd;clip-rule:evenodd;fill:#FFFFFF;}
	.st1{fill-rule:evenodd;clip-rule:evenodd;fill:#826254;}
</style>
<circle class="st0" cx="15.8" cy="16" r="14.7"></circle>
<g id="Enter-The-Vibe-Website">
	<g id="About-_x2F_-Content-Page" transform="translate(-155.147361, -4669.000547)">
		<g id="Group-4" transform="translate(114.000000, 4389.000000)">
			<g id="Group-15" transform="translate(0.000000, 280.000000)">
				<g id="Group-10" transform="translate(41.147361, 0.000547)">
					<path id="Fill-1" class="st1" d="M20.7,12.1c-0.6,0-1.1-0.5-1.1-1.1s0.5-1.1,1.1-1.1s1.1,0.5,1.1,1.1S21.3,12.1,20.7,12.1        M15.9,20.6c-2.5,0-4.6-2.1-4.6-4.6s2-4.6,4.6-4.6s4.6,2.1,4.6,4.6S18.4,20.6,15.9,20.6 M19.5,8.4h-7.4c-2.1,0-3.8,1.7-3.8,3.9       v7.5c0,2.1,1.7,3.9,3.8,3.9h7.4c2.1,0,3.8-1.7,3.8-3.9v-7.5C23.3,10.1,21.6,8.4,19.5,8.4"></path>
					<path id="Fill-3" class="st1" d="M25,19.7c0,3.1-2.5,5.6-5.6,5.6H12c-3.1,0-5.6-2.5-5.6-5.6v-7.5c0-3.1,2.5-5.6,5.6-5.6h7.4       c3.1,0,5.6,2.5,5.6,5.6V19.7z M15.8,0C7.1,0,0,7.2,0,16s7.1,16,15.8,16s15.8-7.2,15.8-16S24.5,0,15.8,0L15.8,0z"></path>
					<path id="Fill-5" class="st1" d="M15.9,13c-1.6,0-2.9,1.3-2.9,3c0,1.6,1.3,3,2.9,3s2.9-1.3,2.9-3S17.5,13,15.9,13"></path>
				</g>
			</g>
		</g>
	</g>
</g>
</svg>
