<?xml version="1.0" encoding="UTF-8"?>
<svg xmlns="http://www.w3.org/2000/svg" xmlns:xlink="http://www.w3.org/1999/xlink" version="1.1" id="spotifySvg" x="0px" y="0px" viewBox="0 0 31.6 32" style="enable-background:new 0 0 31.6 32;" xml:space="preserve">
<style type="text/css">
	.st0{fill-rule:evenodd;clip-rule:evenodd;fill:#FFFFFF;}
	.st1{fill-rule:evenodd;clip-rule:evenodd;fill:#826254;}
</style>
<circle class="st0" cx="15.8" cy="16" r="12.5"></circle>
<g id="Enter-The-Vibe-Website">
	<g id="About-_x2F_-Content-Page" transform="translate(-196.294397, -4669.000657)">
		<g id="Group-4" transform="translate(114.000000, 4389.000000)">
			<g id="Group-15" transform="translate(0.000000, 280.000000)">
				<path id="Fill-13" class="st1" d="M108.2,14.6c-0.3,0.4-0.7,0.7-1.2,0.7c-0.2,0-0.5-0.1-0.7-0.2c-7.1-4.2-16.2-1.7-16.3-1.7      c-0.7,0.2-1.5-0.2-1.7-1c-0.2-0.8,0.2-1.5,1-1.7c0.1,0,2.6-0.7,6.2-0.8c2.1-0.1,4.1,0.1,5.9,0.4c2.4,0.5,4.5,1.2,6.4,2.4      C108.4,13,108.6,13.9,108.2,14.6 M105.9,18.7c-0.2,0.4-0.6,0.6-1,0.6c-0.2,0-0.4-0.1-0.6-0.2c-3-1.8-6.4-2-8.8-2      c-2.6,0.1-4.5,0.6-4.5,0.6c-0.6,0.2-1.2-0.2-1.4-0.8c-0.2-0.6,0.2-1.2,0.8-1.4c0.1,0,2.1-0.6,5-0.7c1.7-0.1,3.3,0.1,4.8,0.4      c1.9,0.4,3.7,1,5.2,1.9C106.1,17.4,106.2,18.1,105.9,18.7 M104.2,22.4c-0.2,0.3-0.5,0.5-0.8,0.5c-0.2,0-0.3,0-0.5-0.1      c-2.5-1.5-5.4-1.7-7.4-1.7c-2.2,0.1-3.8,0.5-3.8,0.5c-0.5,0.1-1-0.2-1.2-0.7c-0.1-0.5,0.2-1,0.7-1.2c0.1,0,1.8-0.5,4.2-0.6      c1.4,0,2.8,0.1,4.1,0.3c1.6,0.3,3.1,0.9,4.4,1.6C104.3,21.3,104.4,21.9,104.2,22.4 M98.1,0c-8.7,0-15.8,7.2-15.8,16      s7.1,16,15.8,16c8.7,0,15.8-7.2,15.8-16S106.8,0,98.1,0"></path>
			</g>
		</g>
	</g>
</g>
</svg>
