<?xml version="1.0" encoding="UTF-8"?>
<svg xmlns="http://www.w3.org/2000/svg" xmlns:xlink="http://www.w3.org/1999/xlink" version="1.1" id="tiktokSvg" x="0px" y="0px" viewBox="0 0 31.6 32" style="enable-background:new 0 0 31.6 32;" xml:space="preserve">
<style type="text/css">
	.st0{fill-rule:evenodd;clip-rule:evenodd;fill:#FFFEFD;}
	.st1{filter:url(#Adobe_OpacityMaskFilter);}
	.st2{fill-rule:evenodd;clip-rule:evenodd;fill:#FFFFFF;}
	.st3{mask:url(#mask-2_1_);fill-rule:evenodd;clip-rule:evenodd;fill:#826254;}
</style>
<circle class="st0" cx="15.5" cy="16.1" r="13.5"></circle>
<g id="Enter-The-Vibe-Website">
	<g id="About-_x2F_-Content-Page" transform="translate(-237.441326, -4669.000000)">
		<g id="Group-4" transform="translate(114.000000, 4389.000000)">
			<g id="Group-15" transform="translate(0.000000, 280.000000)">
				<g id="Group-12" transform="translate(123.441326, 0.000000)">
					<g id="Clip-11">
					</g>
					<defs>
						<filter id="Adobe_OpacityMaskFilter" filterUnits="userSpaceOnUse" x="0" y="0" width="31.6" height="32">
							<feColorMatrix type="matrix" values="1 0 0 0 0  0 1 0 0 0  0 0 1 0 0  0 0 0 1 0"></feColorMatrix>
						</filter>
					</defs>
					<mask maskUnits="userSpaceOnUse" x="0" y="0" width="31.6" height="32" id="mask-2_1_">
						<g class="st1">
							<polygon id="path-1_1_" class="st2" points="0,0 31.6,0 31.6,32 0,32        "></polygon>
						</g>
					</mask>
					<path id="Fill-10" class="st3" d="M24,14.2L24,14.2c-0.2,0-0.3,0-0.5,0c-1.8,0-3.4-0.9-4.4-2.4V20c0,3.4-2.7,6.1-6,6.1       s-6-2.7-6-6.1s2.7-6.1,6-6.1c0.1,0,0.2,0,0.4,0v3c-0.1,0-0.2,0-0.4,0c-1.7,0-3.1,1.4-3.1,3.1c0,1.7,1.4,3.1,3.1,3.1       c1.7,0,3.2-1.4,3.2-3.1l0-14h2.8c0.3,2.6,2.3,4.6,4.9,4.8V14.2z M15.8,0C7.1,0,0,7.2,0,16s7.1,16,15.8,16s15.8-7.2,15.8-16       S24.5,0,15.8,0L15.8,0z"></path>
				</g>
			</g>
		</g>
	</g>
</g>
</svg>
